<svg height="118px" version="1.1" viewBox="0 0 73 118" width="73px" xmlns="http://www.w3.org/2000/svg" xmlns:xlink="http://www.w3.org/1999/xlink"><defs><path d="M67.0292069,43.1960354 C67.0292069,44.7923079 67.9279603,46.2502531 69.3513128,46.9642922 L70.6775025,47.6303886 C72.1008549,48.3432488 73,49.8019792 73,51.3982517 L73,76.5963326 C73,78.1914262 72.1008549,79.6505503 70.6775025,80.3645895 L69.3513128,81.0295068 C67.9279603,81.743546 67.0292069,83.2026691 67.0292069,84.798549 L67.0292069,116.203701 C67.0292069,117.195969 66.2276161,118 65.2383612,118 L54.8266917,118 C53.8378284,118 53.0358461,117.195969 53.0358461,116.203701 L53.0358461,84.2067253 C53.0358461,82.6116318 53.9349912,81.1525077 55.3583436,80.4384685 L56.6845333,79.7723732 C58.1078858,79.0599056 59.0066392,77.6007815 59.0066392,76.0052953 L59.0066392,52.2867735 C59.0066392,50.6905 58.1078858,49.2325559 56.6845333,48.5185167 L55.3583436,47.8524204 C53.9349912,47.1399528 53.0358461,45.6808297 53.0358461,44.0845562 L53.7508525,26.4897962 C53.7508525,26.4897962 53.7387067,26.1424046 53.3719967,26.1007482 C53.0045035,26.0602718 52.9437763,26.4449966 52.9437763,26.4449966 L50.2196996,45.2564139 C49.9333053,46.9835483 50.7442996,48.7087175 52.2534522,49.5878065 L52.4579645,49.7076652 C53.9682929,50.5871479 54.7773272,52.3111381 54.4928918,54.0382715 L49.7178239,75.9514566 C49.4866713,77.3547778 48.564803,78.5458915 47.2679969,79.1196381 L44.7198312,80.2447308 C43.4222419,80.8184774 42.5007651,82.0095911 42.2680451,83.4129123 L36.807747,116.497255 C36.6639619,117.364556 35.9168297,118 35.039232,118 L31.6013248,118 C30.7245114,118 29.9765949,117.364556 29.8339857,116.497255 L24.3439114,83.249434 C24.0586929,81.5167974 24.8724284,79.789664 26.3878507,78.9113602 L26.5743401,78.8036849 C28.0897614,77.9265601 28.903498,76.1982467 28.6178868,74.4671827 L24.1111913,54.9491926 C23.8784722,53.5427282 22.9542523,52.3508282 21.6531365,51.7782606 L19.1226022,50.6653501 C17.8207022,50.0935679 16.8953073,48.9004899 16.661804,47.4940255 L13.747321,26.4673959 C13.747321,26.4673959 13.6822841,26.0480895 13.2763963,26.1109663 C12.9222228,26.1667692 12.9402448,26.505908 12.9402448,26.505908 L13.605495,48.7998883 C13.605495,50.3961608 14.5034642,51.8544986 15.9268167,52.5681451 L17.2526147,53.2342405 C18.6759672,53.9471007 19.5751123,55.4062248 19.5751123,57.0024973 L19.5751123,74.3390723 C19.5751123,75.9353448 18.6759672,77.3932899 17.2526147,78.1073291 L15.9268167,78.7734255 C14.5034642,79.4862857 13.605495,80.9454088 13.605495,82.5416823 L13.605495,116.203701 C13.605495,117.195969 12.8027284,118 11.8134735,118 L1.79084663,118 C0.801590728,118 0,117.195969 0,116.203701 L0,81.9667568 C0,80.3704843 0.898753484,78.9113602 2.32210592,78.1977137 L3.64947143,77.5324036 C5.07164804,76.8187571 5.97157735,75.359634 5.97157735,73.7645395 L5.97157735,57.8662608 C5.97157735,56.270381 5.07164804,54.8112579 3.64947143,54.0983977 L2.32210592,53.4330876 C0.898753484,52.7182621 0,51.260317 0,49.6640445 L0,1.79629763 C0,0.804423719 0.801590728,0 1.79084663,0 L18.4624449,0 C19.3181025,0 20.0526983,0.6051849 20.2199898,1.44615549 L29.0492411,46.7784137 C29.3207484,48.1420447 30.2437915,49.2844283 31.518266,49.830667 L34.2952336,51.0217797 C35.5697081,51.5688038 36.4927523,52.7111884 36.7642585,54.0740331 L38.9680459,64.4250481 C39.0377831,64.7791198 39.5427936,64.7791198 39.6129224,64.4250481 L41.5452035,54.8831727 C41.8903651,53.1407127 41.1060131,51.3687787 39.5854979,50.4590365 C38.0649827,49.5485091 37.2794549,47.7765761 37.6257923,46.0341161 L46.422526,1.44615549 C46.5886428,0.6051849 47.3236302,0 48.1777204,0 L65.2383612,0 C66.2276161,0 67.0292069,0.804423719 67.0292069,1.79629763 L67.0292069,43.1960354 Z" id="path-1"></path><linearGradient id="linearGradient-3" x1="-29.1597249%" x2="101.682964%" y1="50%" y2="50%"><stop offset="0%" stop-color="#0203FF"></stop><stop offset="100%" stop-color="#B500F7"></stop></linearGradient></defs><g fill="none" fill-rule="evenodd" id="Page-1" stroke="none" stroke-width="1"><g id="Artboard"><mask fill="white" id="mask-2"><use href="#path-1"></use></mask><use fill="#A855F7" id="logo" href="#path-1"></use><rect fill="url(#linearGradient-3)" height="124" id="path" mask="url(#mask-2)" width="73" x="0" y="100%"></rect></g></g></svg>
